<?xml version="1.0" encoding="UTF-8" standalone="no"?>
<!DOCTYPE svg PUBLIC "-//W3C//DTD SVG 1.1//EN"
 "http://www.w3.org/Graphics/SVG/1.1/DTD/svg11.dtd">
<!-- Generated by graphviz version 2.43.0 (0)
 -->
<!-- Title: test Pages: 1 -->
<svg width="1479pt" height="1038pt"
 viewBox="0.00 0.00 1479.00 1037.70" xmlns="http://www.w3.org/2000/svg" xmlns:xlink="http://www.w3.org/1999/xlink">
<g id="graph0" class="graph" transform="scale(1 1) rotate(0) translate(4 1033.7)">
<title>test</title>
<polygon fill="white" stroke="transparent" points="-4,4 -4,-1033.7 1475,-1033.7 1475,4 -4,4"/>
<!-- node1 -->
<g id="node1" class="node">
<title>node1</title>
<path fill="#a1d99b" stroke="#31a354" d="M11.5,-309.4C11.5,-309.4 72.5,-309.4 72.5,-309.4 78.5,-309.4 84.5,-315.4 84.5,-321.4 84.5,-321.4 84.5,-334.4 84.5,-334.4 84.5,-340.4 78.5,-346.4 72.5,-346.4 72.5,-346.4 11.5,-346.4 11.5,-346.4 5.5,-346.4 -0.5,-340.4 -0.5,-334.4 -0.5,-334.4 -0.5,-321.4 -0.5,-321.4 -0.5,-315.4 5.5,-309.4 11.5,-309.4"/>
<text text-anchor="middle" x="42" y="-324.2" font-family="Times,serif" font-size="14.00">__MAIN__</text>
</g>
<!-- node14 -->
<g id="node2" class="node">
<title>node14</title>
<path fill="#a1d99b" stroke="#31a354" d="M176,-429.4C176,-429.4 206,-429.4 206,-429.4 212,-429.4 218,-435.4 218,-441.4 218,-441.4 218,-454.4 218,-454.4 218,-460.4 212,-466.4 206,-466.4 206,-466.4 176,-466.4 176,-466.4 170,-466.4 164,-460.4 164,-454.4 164,-454.4 164,-441.4 164,-441.4 164,-435.4 170,-429.4 176,-429.4"/>
<text text-anchor="middle" x="191" y="-444.2" font-family="Times,serif" font-size="14.00">main</text>
</g>
<!-- node1&#45;&gt;node14 -->
<g id="edge1" class="edge">
<title>node1&#45;&gt;node14</title>
<path fill="none" stroke="black" d="M65.97,-346.65C91.1,-367.17 131.52,-400.16 159.35,-422.88"/>
<polygon fill="black" stroke="black" points="157.23,-425.67 167.19,-429.28 161.66,-420.25 157.23,-425.67"/>
</g>
<!-- node17 -->
<g id="node3" class="node">
<title>node17</title>
<path fill="none" stroke="black" d="M133,-188.4C133,-188.4 249,-188.4 249,-188.4 255,-188.4 261,-194.4 261,-200.4 261,-200.4 261,-213.4 261,-213.4 261,-219.4 255,-225.4 249,-225.4 249,-225.4 133,-225.4 133,-225.4 127,-225.4 121,-219.4 121,-213.4 121,-213.4 121,-200.4 121,-200.4 121,-194.4 127,-188.4 133,-188.4"/>
<text text-anchor="middle" x="191" y="-203.2" font-family="Times,serif" font-size="14.00">parse_arguments</text>
</g>
<!-- node1&#45;&gt;node17 -->
<g id="edge2" class="edge">
<title>node1&#45;&gt;node17</title>
<path fill="none" stroke="black" d="M65.65,-309.26C90.72,-288.62 131.27,-255.25 159.21,-232.25"/>
<polygon fill="black" stroke="black" points="161.59,-234.82 167.09,-225.76 157.14,-229.41 161.59,-234.82"/>
</g>
<!-- node2 -->
<g id="node4" class="node">
<title>node2</title>
<path fill="none" stroke="black" d="M308.5,-929.4C308.5,-929.4 445.5,-929.4 445.5,-929.4 451.5,-929.4 457.5,-935.4 457.5,-941.4 457.5,-941.4 457.5,-954.4 457.5,-954.4 457.5,-960.4 451.5,-966.4 445.5,-966.4 445.5,-966.4 308.5,-966.4 308.5,-966.4 302.5,-966.4 296.5,-960.4 296.5,-954.4 296.5,-954.4 296.5,-941.4 296.5,-941.4 296.5,-935.4 302.5,-929.4 308.5,-929.4"/>
<text text-anchor="middle" x="377" y="-944.2" font-family="Times,serif" font-size="14.00">check_dependencies</text>
</g>
<!-- node14&#45;&gt;node2 -->
<g id="edge21" class="edge">
<title>node14&#45;&gt;node2</title>
<path fill="none" stroke="black" d="M198.88,-466.59C226.83,-542.55 332.05,-828.47 365.63,-919.72"/>
<polygon fill="black" stroke="black" points="362.45,-921.21 369.19,-929.38 369.02,-918.79 362.45,-921.21"/>
</g>
<!-- node4 -->
<g id="node8" class="node">
<title>node4</title>
<path fill="none" stroke="black" d="M329.5,-550.4C329.5,-550.4 424.5,-550.4 424.5,-550.4 430.5,-550.4 436.5,-556.4 436.5,-562.4 436.5,-562.4 436.5,-575.4 436.5,-575.4 436.5,-581.4 430.5,-587.4 424.5,-587.4 424.5,-587.4 329.5,-587.4 329.5,-587.4 323.5,-587.4 317.5,-581.4 317.5,-575.4 317.5,-575.4 317.5,-562.4 317.5,-562.4 317.5,-556.4 323.5,-550.4 329.5,-550.4"/>
<text text-anchor="middle" x="377" y="-565.2" font-family="Times,serif" font-size="14.00">clone_projects</text>
</g>
<!-- node14&#45;&gt;node4 -->
<g id="edge22" class="edge">
<title>node14&#45;&gt;node4</title>
<path fill="none" stroke="black" d="M218.36,-465.24C249.97,-486.02 303.13,-520.98 338.88,-544.49"/>
<polygon fill="black" stroke="black" points="337.29,-547.63 347.57,-550.2 341.14,-541.78 337.29,-547.63"/>
</g>
<!-- node7 -->
<g id="node13" class="node">
<title>node7</title>
<path fill="none" stroke="black" d="M911.5,-63.4C911.5,-63.4 996.5,-63.4 996.5,-63.4 1002.5,-63.4 1008.5,-69.4 1008.5,-75.4 1008.5,-75.4 1008.5,-88.4 1008.5,-88.4 1008.5,-94.4 1002.5,-100.4 996.5,-100.4 996.5,-100.4 911.5,-100.4 911.5,-100.4 905.5,-100.4 899.5,-94.4 899.5,-88.4 899.5,-88.4 899.5,-75.4 899.5,-75.4 899.5,-69.4 905.5,-63.4 911.5,-63.4"/>
<text text-anchor="middle" x="954" y="-78.2" font-family="Times,serif" font-size="14.00">get_entity_id</text>
</g>
<!-- node14&#45;&gt;node7 -->
<g id="edge23" class="edge">
<title>node14&#45;&gt;node7</title>
<path fill="none" stroke="black" d="M199.2,-429.05C225.86,-362.4 326.12,-137.58 494,-57.9 623.54,3.59 797.39,-33.07 889.51,-60.39"/>
<polygon fill="black" stroke="black" points="888.66,-63.79 899.25,-63.33 890.69,-57.09 888.66,-63.79"/>
</g>
<!-- node10 -->
<g id="node15" class="node">
<title>node10</title>
<path fill="none" stroke="black" d="M345,-309.4C345,-309.4 409,-309.4 409,-309.4 415,-309.4 421,-315.4 421,-321.4 421,-321.4 421,-334.4 421,-334.4 421,-340.4 415,-346.4 409,-346.4 409,-346.4 345,-346.4 345,-346.4 339,-346.4 333,-340.4 333,-334.4 333,-334.4 333,-321.4 333,-321.4 333,-315.4 339,-309.4 345,-309.4"/>
<text text-anchor="middle" x="377" y="-324.2" font-family="Times,serif" font-size="14.00">list_entity</text>
</g>
<!-- node14&#45;&gt;node10 -->
<g id="edge24" class="edge">
<title>node14&#45;&gt;node10</title>
<path fill="none" stroke="black" d="M218.36,-430.71C249.97,-410.09 303.13,-375.42 338.88,-352.11"/>
<polygon fill="black" stroke="black" points="341.11,-354.83 347.57,-346.44 337.28,-348.97 341.11,-354.83"/>
</g>
<!-- node3 -->
<g id="node5" class="node">
<title>node3</title>
<path fill="none" stroke="black" d="M1138,-752.4C1138,-752.4 1218,-752.4 1218,-752.4 1224,-752.4 1230,-758.4 1230,-764.4 1230,-764.4 1230,-777.4 1230,-777.4 1230,-783.4 1224,-789.4 1218,-789.4 1218,-789.4 1138,-789.4 1138,-789.4 1132,-789.4 1126,-783.4 1126,-777.4 1126,-777.4 1126,-764.4 1126,-764.4 1126,-758.4 1132,-752.4 1138,-752.4"/>
<text text-anchor="middle" x="1178" y="-767.2" font-family="Times,serif" font-size="14.00">check_token</text>
</g>
<!-- node2&#45;&gt;node3 -->
<g id="edge3" class="edge">
<title>node2&#45;&gt;node3</title>
<path fill="none" stroke="black" d="M457.52,-950.69C551.67,-952.12 712.53,-948.64 846,-915.9 955.83,-888.96 1075.09,-828.07 1136.05,-794.4"/>
<polygon fill="black" stroke="black" points="1137.94,-797.35 1144.97,-789.43 1134.53,-791.24 1137.94,-797.35"/>
</g>
<!-- node8 -->
<g id="node6" class="node">
<title>node8</title>
<path fill="none" stroke="black" d="M1341,-550.4C1341,-550.4 1459,-550.4 1459,-550.4 1465,-550.4 1471,-556.4 1471,-562.4 1471,-562.4 1471,-575.4 1471,-575.4 1471,-581.4 1465,-587.4 1459,-587.4 1459,-587.4 1341,-587.4 1341,-587.4 1335,-587.4 1329,-581.4 1329,-575.4 1329,-575.4 1329,-562.4 1329,-562.4 1329,-556.4 1335,-550.4 1341,-550.4"/>
<text text-anchor="middle" x="1400" y="-565.2" font-family="Times,serif" font-size="14.00">get_platform_info</text>
</g>
<!-- node3&#45;&gt;node8 -->
<g id="edge4" class="edge">
<title>node3&#45;&gt;node8</title>
<path fill="none" stroke="black" d="M1199.3,-752.26C1238.84,-715.95 1326.21,-635.73 1371.13,-594.49"/>
<polygon fill="black" stroke="black" points="1373.75,-596.84 1378.75,-587.5 1369.01,-591.68 1373.75,-596.84"/>
</g>
<!-- node16 -->
<g id="node7" class="node">
<title>node16</title>
<path fill="none" stroke="black" d="M1354,-248.4C1354,-248.4 1446,-248.4 1446,-248.4 1452,-248.4 1458,-254.4 1458,-260.4 1458,-260.4 1458,-273.4 1458,-273.4 1458,-279.4 1452,-285.4 1446,-285.4 1446,-285.4 1354,-285.4 1354,-285.4 1348,-285.4 1342,-279.4 1342,-273.4 1342,-273.4 1342,-260.4 1342,-260.4 1342,-254.4 1348,-248.4 1354,-248.4"/>
<text text-anchor="middle" x="1400" y="-263.2" font-family="Times,serif" font-size="14.00">make_request</text>
</g>
<!-- node3&#45;&gt;node16 -->
<g id="edge5" class="edge">
<title>node3&#45;&gt;node16</title>
<path fill="none" stroke="black" d="M1187.09,-752.36C1220.38,-676.11 1346.86,-386.36 1386.82,-294.8"/>
<polygon fill="black" stroke="black" points="1390.04,-296.17 1390.84,-285.6 1383.63,-293.37 1390.04,-296.17"/>
</g>
<!-- node9 -->
<g id="node9" class="node">
<title>node9</title>
<path fill="none" stroke="black" d="M539,-550.4C539,-550.4 619,-550.4 619,-550.4 625,-550.4 631,-556.4 631,-562.4 631,-562.4 631,-575.4 631,-575.4 631,-581.4 625,-587.4 619,-587.4 619,-587.4 539,-587.4 539,-587.4 533,-587.4 527,-581.4 527,-575.4 527,-575.4 527,-562.4 527,-562.4 527,-556.4 533,-550.4 539,-550.4"/>
<text text-anchor="middle" x="579" y="-565.2" font-family="Times,serif" font-size="14.00">get_projects</text>
</g>
<!-- node4&#45;&gt;node9 -->
<g id="edge6" class="edge">
<title>node4&#45;&gt;node9</title>
<path fill="none" stroke="black" d="M436.66,-568.9C461.78,-568.9 491.13,-568.9 516.55,-568.9"/>
<polygon fill="black" stroke="black" points="516.82,-572.4 526.82,-568.9 516.82,-565.4 516.82,-572.4"/>
</g>
<!-- node19 -->
<g id="node10" class="node">
<title>node19</title>
<path fill="none" stroke="black" d="M531.5,-869.4C531.5,-869.4 626.5,-869.4 626.5,-869.4 632.5,-869.4 638.5,-875.4 638.5,-881.4 638.5,-881.4 638.5,-894.4 638.5,-894.4 638.5,-900.4 632.5,-906.4 626.5,-906.4 626.5,-906.4 531.5,-906.4 531.5,-906.4 525.5,-906.4 519.5,-900.4 519.5,-894.4 519.5,-894.4 519.5,-881.4 519.5,-881.4 519.5,-875.4 525.5,-869.4 531.5,-869.4"/>
<text text-anchor="middle" x="579" y="-884.2" font-family="Times,serif" font-size="14.00">run_git_clones</text>
</g>
<!-- node4&#45;&gt;node19 -->
<g id="edge7" class="edge">
<title>node4&#45;&gt;node19</title>
<path fill="none" stroke="black" d="M389.62,-587.43C423.31,-641.17 521.18,-797.27 560.92,-860.66"/>
<polygon fill="black" stroke="black" points="558.07,-862.7 566.35,-869.32 564,-858.99 558.07,-862.7"/>
</g>
<!-- node9&#45;&gt;node9 -->
<g id="edge14" class="edge">
<title>node9&#45;&gt;node9</title>
<path fill="none" stroke="black" d="M543.9,-587.56C538.5,-597.2 550.2,-605.9 579,-605.9 597,-605.9 608.32,-602.5 612.96,-597.6"/>
<polygon fill="black" stroke="black" points="616.45,-597.89 614.1,-587.56 609.49,-597.1 616.45,-597.89"/>
</g>
<!-- node6 -->
<g id="node12" class="node">
<title>node6</title>
<path fill="none" stroke="black" d="M712,-403.4C712,-403.4 834,-403.4 834,-403.4 840,-403.4 846,-409.4 846,-415.4 846,-415.4 846,-428.4 846,-428.4 846,-434.4 840,-440.4 834,-440.4 834,-440.4 712,-440.4 712,-440.4 706,-440.4 700,-434.4 700,-428.4 700,-428.4 700,-415.4 700,-415.4 700,-409.4 706,-403.4 712,-403.4"/>
<text text-anchor="middle" x="773" y="-418.2" font-family="Times,serif" font-size="14.00">filter_json_with_jq</text>
</g>
<!-- node9&#45;&gt;node6 -->
<g id="edge13" class="edge">
<title>node9&#45;&gt;node6</title>
<path fill="none" stroke="black" d="M604.32,-550.28C638.56,-524.06 701.07,-476.21 739.33,-446.91"/>
<polygon fill="black" stroke="black" points="741.77,-449.45 747.58,-440.6 737.51,-443.9 741.77,-449.45"/>
</g>
<!-- node15 -->
<g id="node14" class="node">
<title>node15</title>
<path fill="none" stroke="black" d="M893.5,-468.4C893.5,-468.4 1014.5,-468.4 1014.5,-468.4 1020.5,-468.4 1026.5,-474.4 1026.5,-480.4 1026.5,-480.4 1026.5,-493.4 1026.5,-493.4 1026.5,-499.4 1020.5,-505.4 1014.5,-505.4 1014.5,-505.4 893.5,-505.4 893.5,-505.4 887.5,-505.4 881.5,-499.4 881.5,-493.4 881.5,-493.4 881.5,-480.4 881.5,-480.4 881.5,-474.4 887.5,-468.4 893.5,-468.4"/>
<text text-anchor="middle" x="954" y="-483.2" font-family="Times,serif" font-size="14.00">make_api_request</text>
</g>
<!-- node9&#45;&gt;node15 -->
<g id="edge15" class="edge">
<title>node9&#45;&gt;node15</title>
<path fill="none" stroke="black" d="M631.08,-557.67C693.01,-544.05 798.17,-520.94 871.38,-504.84"/>
<polygon fill="black" stroke="black" points="872.48,-508.18 881.49,-502.62 870.97,-501.35 872.48,-508.18"/>
</g>
<!-- node18 -->
<g id="node19" class="node">
<title>node18</title>
<path fill="none" stroke="black" d="M722.5,-869.4C722.5,-869.4 823.5,-869.4 823.5,-869.4 829.5,-869.4 835.5,-875.4 835.5,-881.4 835.5,-881.4 835.5,-894.4 835.5,-894.4 835.5,-900.4 829.5,-906.4 823.5,-906.4 823.5,-906.4 722.5,-906.4 722.5,-906.4 716.5,-906.4 710.5,-900.4 710.5,-894.4 710.5,-894.4 710.5,-881.4 710.5,-881.4 710.5,-875.4 716.5,-869.4 722.5,-869.4"/>
<text text-anchor="middle" x="773" y="-884.2" font-family="Times,serif" font-size="14.00">run_commands</text>
</g>
<!-- node19&#45;&gt;node18 -->
<g id="edge28" class="edge">
<title>node19&#45;&gt;node18</title>
<path fill="none" stroke="black" d="M638.65,-887.9C658.08,-887.9 679.94,-887.9 700.24,-887.9"/>
<polygon fill="black" stroke="black" points="700.38,-891.4 710.38,-887.9 700.38,-884.4 700.38,-891.4"/>
</g>
<!-- node5 -->
<g id="node11" class="node">
<title>node5</title>
<path fill="none" stroke="black" d="M1075,-184.4C1075,-184.4 1281,-184.4 1281,-184.4 1287,-184.4 1293,-190.4 1293,-196.4 1293,-196.4 1293,-209.4 1293,-209.4 1293,-215.4 1287,-221.4 1281,-221.4 1281,-221.4 1075,-221.4 1075,-221.4 1069,-221.4 1063,-215.4 1063,-209.4 1063,-209.4 1063,-196.4 1063,-196.4 1063,-190.4 1069,-184.4 1075,-184.4"/>
<text text-anchor="middle" x="1178" y="-199.2" font-family="Times,serif" font-size="14.00">determine_github_entity_type</text>
</g>
<!-- node5&#45;&gt;node8 -->
<g id="edge8" class="edge">
<title>node5&#45;&gt;node8</title>
<path fill="none" stroke="black" d="M1190.21,-221.55C1226.33,-281.64 1339.76,-470.35 1382.5,-541.44"/>
<polygon fill="black" stroke="black" points="1379.66,-543.52 1387.81,-550.28 1385.66,-539.91 1379.66,-543.52"/>
</g>
<!-- node5&#45;&gt;node16 -->
<g id="edge9" class="edge">
<title>node5&#45;&gt;node16</title>
<path fill="none" stroke="black" d="M1242.63,-221.41C1270.67,-229.57 1303.63,-239.16 1332.04,-247.42"/>
<polygon fill="black" stroke="black" points="1331.31,-250.85 1341.89,-250.28 1333.26,-244.13 1331.31,-250.85"/>
</g>
<!-- node7&#45;&gt;node8 -->
<g id="edge11" class="edge">
<title>node7&#45;&gt;node8</title>
<path fill="none" stroke="black" d="M955.89,-100.62C960.76,-178.74 991.43,-478.82 1177,-568.9"/>
<path fill="none" stroke="black" d="M1179,-568.9C1221.95,-589.75 1275.42,-590.24 1318.89,-585.28"/>
<polygon fill="black" stroke="black" points="1319.37,-588.74 1328.85,-584.02 1318.49,-581.8 1319.37,-588.74"/>
</g>
<!-- node7&#45;&gt;node16 -->
<g id="edge12" class="edge">
<title>node7&#45;&gt;node16</title>
<path fill="none" stroke="black" d="M1008.68,-89.12C1077.75,-100.05 1199.91,-125.05 1293,-174.9 1324.81,-191.93 1355.29,-220.04 1375.33,-240.72"/>
<polygon fill="black" stroke="black" points="1373.05,-243.4 1382.48,-248.24 1378.13,-238.58 1373.05,-243.4"/>
</g>
<!-- node7&#45;&gt;node5 -->
<g id="edge10" class="edge">
<title>node7&#45;&gt;node5</title>
<path fill="none" stroke="black" d="M989.2,-100.54C1028.07,-121.72 1091.57,-156.34 1133.82,-179.36"/>
<polygon fill="black" stroke="black" points="1132.3,-182.52 1142.76,-184.24 1135.65,-176.38 1132.3,-182.52"/>
</g>
<!-- node15&#45;&gt;node8 -->
<g id="edge26" class="edge">
<title>node15&#45;&gt;node8</title>
<path fill="none" stroke="black" d="M1014.73,-505.42C1060.19,-520.35 1123.77,-543.06 1177,-568.9"/>
</g>
<!-- node15&#45;&gt;node16 -->
<g id="edge27" class="edge">
<title>node15&#45;&gt;node16</title>
<path fill="none" stroke="black" d="M992.47,-468.33C1073.34,-428.26 1264.05,-333.77 1352.48,-289.95"/>
<polygon fill="black" stroke="black" points="1354.06,-293.07 1361.47,-285.49 1350.96,-286.8 1354.06,-293.07"/>
</g>
<!-- node15&#45;&gt;node5 -->
<g id="edge25" class="edge">
<title>node15&#45;&gt;node5</title>
<path fill="none" stroke="black" d="M969.57,-468.26C1007.83,-419.32 1111.3,-286.95 1155.98,-229.79"/>
<polygon fill="black" stroke="black" points="1158.98,-231.64 1162.38,-221.6 1153.46,-227.32 1158.98,-231.64"/>
</g>
<!-- node12 -->
<g id="node16" class="node">
<title>node12</title>
<path fill="none" stroke="black" d="M515,-309.4C515,-309.4 643,-309.4 643,-309.4 649,-309.4 655,-315.4 655,-321.4 655,-321.4 655,-334.4 655,-334.4 655,-340.4 649,-346.4 643,-346.4 643,-346.4 515,-346.4 515,-346.4 509,-346.4 503,-340.4 503,-334.4 503,-334.4 503,-321.4 503,-321.4 503,-315.4 509,-309.4 515,-309.4"/>
<text text-anchor="middle" x="579" y="-324.2" font-family="Times,serif" font-size="14.00">list_entity_projects</text>
</g>
<!-- node10&#45;&gt;node12 -->
<g id="edge16" class="edge">
<title>node10&#45;&gt;node12</title>
<path fill="none" stroke="black" d="M421.4,-327.9C442.3,-327.9 468.12,-327.9 492.72,-327.9"/>
<polygon fill="black" stroke="black" points="492.81,-331.4 502.81,-327.9 492.81,-324.4 492.81,-331.4"/>
</g>
<!-- node13 -->
<g id="node17" class="node">
<title>node13</title>
<path fill="none" stroke="black" d="M506,-67.4C506,-67.4 652,-67.4 652,-67.4 658,-67.4 664,-73.4 664,-79.4 664,-79.4 664,-92.4 664,-92.4 664,-98.4 658,-104.4 652,-104.4 652,-104.4 506,-104.4 506,-104.4 500,-104.4 494,-98.4 494,-92.4 494,-92.4 494,-79.4 494,-79.4 494,-73.4 500,-67.4 506,-67.4"/>
<text text-anchor="middle" x="579" y="-82.2" font-family="Times,serif" font-size="14.00">list_entity_subgroups</text>
</g>
<!-- node10&#45;&gt;node13 -->
<g id="edge17" class="edge">
<title>node10&#45;&gt;node13</title>
<path fill="none" stroke="black" d="M393.36,-309.31C428.55,-266.73 515.12,-161.99 555.97,-112.55"/>
<polygon fill="black" stroke="black" points="558.91,-114.49 562.59,-104.55 553.52,-110.03 558.91,-114.49"/>
</g>
<!-- node11 -->
<g id="node18" class="node">
<title>node11</title>
<path fill="none" stroke="black" d="M718,-162.4C718,-162.4 828,-162.4 828,-162.4 834,-162.4 840,-168.4 840,-174.4 840,-174.4 840,-187.4 840,-187.4 840,-193.4 834,-199.4 828,-199.4 828,-199.4 718,-199.4 718,-199.4 712,-199.4 706,-193.4 706,-187.4 706,-187.4 706,-174.4 706,-174.4 706,-168.4 712,-162.4 718,-162.4"/>
<text text-anchor="middle" x="773" y="-177.2" font-family="Times,serif" font-size="14.00">list_entity_items</text>
</g>
<!-- node12&#45;&gt;node11 -->
<g id="edge19" class="edge">
<title>node12&#45;&gt;node11</title>
<path fill="none" stroke="black" d="M604.32,-309.28C638.56,-283.06 701.07,-235.21 739.33,-205.91"/>
<polygon fill="black" stroke="black" points="741.77,-208.45 747.58,-199.6 737.51,-202.9 741.77,-208.45"/>
</g>
<!-- node13&#45;&gt;node11 -->
<g id="edge20" class="edge">
<title>node13&#45;&gt;node11</title>
<path fill="none" stroke="black" d="M617.48,-104.44C648.3,-119.69 692.14,-141.38 725.26,-157.77"/>
<polygon fill="black" stroke="black" points="723.78,-160.94 734.29,-162.24 726.88,-154.67 723.78,-160.94"/>
</g>
<!-- node11&#45;&gt;node15 -->
<g id="edge18" class="edge">
<title>node11&#45;&gt;node15</title>
<path fill="none" stroke="black" d="M784.93,-199.58C815.32,-251.54 900.98,-397.98 936.87,-459.32"/>
<polygon fill="black" stroke="black" points="933.92,-461.21 941.99,-468.07 939.96,-457.67 933.92,-461.21"/>
</g>
</g>
</svg>
